<svg width="16" height="16" viewBox="0 0 16 16" fill="none" xmlns="http://www.w3.org/2000/svg">
<style>
  .agent-shell { fill: #020202; }
  .agent-detail { fill: #f9fafb; }
  @media (prefers-color-scheme: dark) {
    .agent-shell { fill: #ffffff; }
    .agent-detail { fill: #020202; }
  }
</style>
<g clip-path="url(#clip0_2163_5009)">
<g clip-path="url(#clip1_2163_5009)">
<path d="M8 13C10.7614 13 13 10.7614 13 8C13 5.23858 10.7614 3 8 3C5.23858 3 3 5.23858 3 8C3 10.7614 5.23858 13 8 13Z" class="agent-shell"/>
<path class="agent-detail" d="M9.33852 5.96699C9.32679 5.96416 9.31582 5.95886 9.30635 5.9515C9.2969 5.94414 9.28919 5.93487 9.28375 5.92431C9.2783 5.91376 9.27525 5.90219 9.2748 5.8904C9.27436 5.87857 9.27653 5.86683 9.28118 5.85593C9.44145 5.47494 9.51218 5.1701 9.39805 5.04248C9.09578 4.7039 7.88356 5.37717 7.49706 5.6052C7.48671 5.61128 7.47513 5.61512 7.46314 5.61642C7.45114 5.61772 7.43899 5.61648 7.42751 5.6128C7.41606 5.6091 7.40553 5.60303 7.39667 5.595C7.38783 5.58697 7.38086 5.57717 7.37624 5.56628C7.21377 5.18611 7.04299 4.92166 6.86986 4.9102C6.411 4.87953 6.04116 6.19288 5.93289 6.62093C5.92999 6.6324 5.9246 6.64313 5.91708 6.65235C5.90954 6.6616 5.90005 6.66914 5.88927 6.67445C5.87848 6.67977 5.86665 6.68274 5.85456 6.68317C5.84249 6.68361 5.83047 6.6815 5.81931 6.67695C5.42925 6.5204 5.11702 6.45132 4.98649 6.56282C4.63986 6.85805 5.32903 8.04207 5.56249 8.41959C5.56873 8.42967 5.57267 8.44099 5.57401 8.45272C5.57537 8.46443 5.57411 8.47632 5.57033 8.48752C5.56655 8.49874 5.56033 8.50902 5.5521 8.51766C5.54385 8.5263 5.53381 8.53309 5.52263 8.53758C5.13354 8.69626 4.8628 8.86309 4.85092 9.03219C4.81966 9.48038 6.16417 9.84164 6.60255 9.94738C6.61427 9.95024 6.62519 9.95553 6.63464 9.9629C6.64405 9.97024 6.65175 9.97951 6.65718 9.99004C6.66261 10.0006 6.66564 10.0121 6.66608 10.0239C6.66653 10.0357 6.66438 10.0474 6.65976 10.0583C6.49946 10.4393 6.42875 10.7443 6.54289 10.8718C6.84515 11.2103 8.05749 10.5372 8.44401 10.3091C8.45435 10.3031 8.46594 10.2992 8.47795 10.2979C8.48994 10.2966 8.5021 10.2978 8.51358 10.3015C8.52505 10.3052 8.53557 10.3113 8.54442 10.3193C8.55326 10.3274 8.56023 10.3372 8.56484 10.3481C8.7273 10.7281 8.89795 10.9926 9.0712 11.0042C9.53007 11.0347 9.89992 9.72148 10.008 9.29329C10.011 9.28183 10.0164 9.27113 10.0239 9.26191C10.0315 9.25268 10.041 9.24516 10.0518 9.23987C10.0626 9.23457 10.0744 9.2316 10.0865 9.23118C10.0986 9.23075 10.1106 9.23288 10.1218 9.23742C10.5118 9.39398 10.8239 9.4629 10.9546 9.35156C11.3012 9.05632 10.6119 7.87217 10.3784 7.49465C10.3722 7.48455 10.3683 7.47323 10.367 7.46152C10.3657 7.44981 10.367 7.43794 10.3707 7.42676C10.3745 7.41555 10.3807 7.40528 10.3889 7.39664C10.3971 7.388 10.4072 7.38116 10.4183 7.37666C10.8075 7.21796 11.0783 7.05113 11.09 6.88203C11.1214 6.43384 9.77677 6.07262 9.33852 5.96699ZM8.81208 5.53733C8.90027 5.69176 8.44578 6.72069 8.10775 7.4404C8.10208 7.45242 8.09281 7.46246 8.08112 7.4692C8.06944 7.47591 8.05594 7.47898 8.04242 7.47798C8.02889 7.47697 8.01602 7.47195 8.00551 7.46359C7.99499 7.45522 7.98736 7.4439 7.98364 7.43118C7.84712 6.96325 7.69106 6.41345 7.52409 5.94674C7.51753 5.92841 7.51787 5.90841 7.52501 5.89032C7.53218 5.87221 7.54568 5.85717 7.56314 5.8479C7.98009 5.62548 8.69358 5.3301 8.81208 5.53733ZM6.81389 5.66469C6.98797 5.71296 7.41147 6.75443 7.69338 7.49679C7.6981 7.5092 7.69879 7.5227 7.69541 7.53552C7.692 7.54833 7.6847 7.55981 7.67442 7.56843C7.66415 7.57705 7.65141 7.5824 7.63795 7.58376C7.62446 7.58512 7.6109 7.5824 7.59905 7.57601C7.1634 7.33985 6.65539 7.05847 6.19938 6.84378C6.18153 6.83532 6.16734 6.82095 6.15931 6.80321C6.15127 6.7855 6.14996 6.76555 6.15557 6.74697C6.28976 6.30211 6.58001 5.6 6.81389 5.66469ZM5.49314 7.13487C5.6511 7.04872 6.70466 7.49266 7.44135 7.82284C7.4537 7.82835 7.46399 7.83742 7.47086 7.84884C7.47775 7.86024 7.48088 7.87345 7.47986 7.88664C7.47881 7.89985 7.4737 7.91242 7.46511 7.9227C7.45655 7.93294 7.44498 7.94042 7.43194 7.94406C6.95301 8.0774 6.38997 8.22983 5.91214 8.39292C5.8934 8.39928 5.87295 8.39894 5.85446 8.39195C5.83596 8.38496 5.82059 8.37179 5.81112 8.35477C5.58379 7.9475 5.28084 7.25061 5.49314 7.13487ZM5.62352 9.0866C5.67281 8.91658 6.73921 8.50292 7.49925 8.22754C7.51194 8.22296 7.52578 8.22227 7.53889 8.22557C7.55202 8.2289 7.56377 8.23605 7.57259 8.24609C7.58141 8.25611 7.5869 8.26855 7.58828 8.2817C7.58966 8.29487 7.5869 8.30811 7.58035 8.31971C7.33842 8.74522 7.05035 9.24142 6.83055 9.68668C6.82196 9.70418 6.80726 9.71811 6.78909 9.72597C6.77092 9.73384 6.75049 9.73514 6.73143 9.72961C6.27598 9.59933 5.55718 9.31502 5.62352 9.0866ZM7.12872 10.3766C7.04039 10.2223 7.49501 9.19329 7.83305 8.47372C7.8387 8.46168 7.84801 8.45162 7.85968 8.4449C7.87135 8.43819 7.88486 8.43512 7.89838 8.43613C7.9119 8.43711 7.92478 8.44215 7.93529 8.45052C7.9458 8.45888 7.95342 8.47018 7.95716 8.48292C8.09368 8.95071 8.24972 9.50065 8.41671 9.96739C8.4232 9.98569 8.42285 10.0057 8.41568 10.0237C8.4085 10.0418 8.39496 10.0568 8.37751 10.0661C7.9607 10.2881 7.24708 10.584 7.12913 10.3766H7.12872ZM9.1269 10.2493C8.95269 10.2011 8.52919 9.15955 8.24728 8.41719C8.24255 8.40475 8.24183 8.3912 8.24523 8.37837C8.24862 8.36555 8.25596 8.35404 8.26625 8.34542C8.27655 8.33678 8.28931 8.33144 8.30279 8.3301C8.31629 8.32876 8.3299 8.33152 8.34175 8.33796C8.77726 8.57412 9.28541 8.85563 9.74127 9.07034C9.75917 9.07874 9.7734 9.09311 9.78143 9.11085C9.78946 9.12859 9.79076 9.14855 9.78509 9.16715C9.65102 9.61266 9.36078 10.3141 9.1269 10.2493ZM10.4477 8.77908C10.2896 8.86536 9.23612 8.4213 8.49931 8.09113C8.48696 8.08561 8.47667 8.07654 8.4698 8.06512C8.46291 8.05372 8.45978 8.04051 8.4608 8.02733C8.46183 8.01412 8.46696 8.00154 8.47555 7.99128C8.48411 7.98103 8.49568 7.97357 8.50871 7.96992C8.98779 7.83658 9.55068 7.68414 10.0285 7.52105C10.0473 7.51469 10.0678 7.51504 10.0863 7.52205C10.1048 7.52906 10.1202 7.54229 10.1297 7.55933C10.3569 7.96646 10.6598 8.66347 10.4477 8.77908ZM10.3173 6.82737C10.2678 6.99752 9.20159 7.41118 8.44155 7.68656C8.42881 7.69116 8.41496 7.69185 8.40183 7.68855C8.3887 7.68524 8.37692 7.67807 8.36807 7.66801C8.35923 7.65796 8.35377 7.6455 8.35242 7.63231C8.35104 7.61914 8.35383 7.60585 8.36045 7.59426C8.60224 7.16888 8.89031 6.67254 9.11011 6.22729C9.11875 6.20983 9.13346 6.19595 9.15161 6.18811C9.16978 6.18026 9.19019 6.17898 9.20923 6.18447C9.66468 6.31544 10.3835 6.59894 10.3173 6.82737Z" fill="#FAFAFA"/>
</g>
</g>
<defs>
<clipPath id="clip0_2163_5009">
<rect width="10" height="10" fill="white" transform="translate(3 3)"/>
</clipPath>
<clipPath id="clip1_2163_5009">
<rect width="10" height="10" fill="white" transform="translate(3 3)"/>
</clipPath>
</defs>
</svg>
