<svg width="16" height="16" viewBox="0 0 16 16" fill="none" xmlns="http://www.w3.org/2000/svg">
<path fill-rule="evenodd" clip-rule="evenodd" d="M8.2747 3.15462C8.45333 3.46825 8.63106 3.7828 8.80833 4.09779C8.8155 4.11039 8.82588 4.12086 8.83842 4.12812C8.85096 4.13539 8.8652 4.1392 8.87969 4.13916H11.4033C11.4824 4.13916 11.5497 4.18915 11.606 4.28779L12.2669 5.45596C12.3533 5.60914 12.376 5.67323 12.2778 5.83641C12.1597 6.03186 12.0447 6.22914 11.9324 6.42732L11.7656 6.7264C11.7174 6.81549 11.6642 6.85368 11.7474 6.95913L12.9528 9.06684C13.031 9.20365 13.0033 9.29138 12.9333 9.41683C12.7346 9.77365 12.5324 10.1277 12.3265 10.4805C12.2542 10.6041 12.1665 10.6509 12.0174 10.6486C11.6642 10.6414 11.3119 10.6441 10.9597 10.6559C10.9521 10.6563 10.9448 10.6586 10.9383 10.6626C10.9319 10.6665 10.9266 10.6721 10.9228 10.6786C10.5164 11.3988 10.1066 12.1169 9.69332 12.8332C9.6165 12.9663 9.52059 12.9982 9.36378 12.9986C8.9106 13 8.45379 13.0004 7.99243 12.9995C7.94948 12.9994 7.90732 12.988 7.8702 12.9663C7.83309 12.9447 7.80235 12.9137 7.78107 12.8763L7.17426 11.8204C7.17073 11.8135 7.16531 11.8078 7.15863 11.8038C7.15195 11.7999 7.14429 11.7979 7.13653 11.7982H4.8102C4.68065 11.8118 4.55884 11.7977 4.44429 11.7564L3.71567 10.4973C3.69412 10.46 3.6827 10.4177 3.68254 10.3747C3.68238 10.3316 3.69349 10.2893 3.71476 10.2518L4.26339 9.2882C4.2712 9.27457 4.27531 9.25914 4.27531 9.24343C4.27531 9.22772 4.2712 9.21228 4.26339 9.19865C3.9776 8.70387 3.69352 8.20812 3.41113 7.71139L3.05204 7.07731C2.97931 6.9364 2.9734 6.85186 3.09522 6.63868C3.30658 6.26914 3.51658 5.90005 3.72567 5.53142C3.78567 5.42505 3.86385 5.3796 3.99112 5.37914C4.38338 5.37749 4.77565 5.37734 5.16792 5.37869C5.17783 5.37861 5.18754 5.37593 5.19608 5.3709C5.20462 5.36587 5.21168 5.35868 5.21656 5.35005L6.492 3.12507C6.51132 3.09123 6.53923 3.06307 6.57291 3.04344C6.60658 3.02381 6.64483 3.0134 6.68381 3.01326C6.92199 3.0128 7.16244 3.01326 7.40335 3.01053L7.86561 3.00008C8.02061 2.99871 8.1947 3.01462 8.2747 3.15462ZM6.71472 3.3378C6.70993 3.3378 6.70522 3.33905 6.70107 3.34145C6.69692 3.34384 6.69348 3.34729 6.69108 3.35144L5.38837 5.63096C5.38212 5.6417 5.37317 5.65062 5.3624 5.65684C5.35164 5.66306 5.33944 5.66636 5.32701 5.66641H4.0243C3.99885 5.66641 3.99248 5.67778 4.00566 5.70005L6.64654 10.3164C6.6579 10.3355 6.65245 10.3446 6.63108 10.345L5.36065 10.3518C5.34207 10.3512 5.3237 10.3558 5.30763 10.3651C5.29155 10.3745 5.27842 10.3881 5.26974 10.4046L4.66975 11.4545C4.64975 11.49 4.6602 11.5082 4.70065 11.5082L7.2988 11.5118C7.31971 11.5118 7.33517 11.5209 7.34608 11.5395L7.98379 12.655C8.0047 12.6918 8.02561 12.6923 8.04698 12.655L10.3224 8.6732L10.6783 8.04503C10.6805 8.04115 10.6836 8.03792 10.6875 8.03567C10.6913 8.03342 10.6957 8.03223 10.7001 8.03223C10.7046 8.03223 10.7089 8.03342 10.7128 8.03567C10.7166 8.03792 10.7198 8.04115 10.7219 8.04503L11.3692 9.19502C11.3741 9.20362 11.3811 9.21077 11.3897 9.21573C11.3982 9.22068 11.408 9.22326 11.4178 9.2232L12.6737 9.21411C12.677 9.21414 12.6801 9.21331 12.6829 9.21171C12.6857 9.21012 12.688 9.20781 12.6896 9.20502C12.6912 9.20224 12.692 9.19911 12.692 9.19593C12.692 9.19274 12.6912 9.18961 12.6896 9.18684L11.3715 6.87504C11.3667 6.86731 11.3642 6.85842 11.3642 6.84936C11.3642 6.84029 11.3667 6.8314 11.3715 6.82368L11.5047 6.59322L12.0137 5.6946C12.0247 5.67596 12.0192 5.66641 11.9978 5.66641H6.72745C6.70063 5.66641 6.69427 5.6546 6.7079 5.63141L7.35971 4.49279C7.3646 4.48503 7.36719 4.47605 7.36719 4.46688C7.36719 4.45771 7.3646 4.44873 7.35971 4.44097L6.73881 3.35189C6.73644 3.34759 6.73294 3.34401 6.7287 3.34153C6.72446 3.33905 6.71963 3.33776 6.71472 3.3378ZM9.57377 6.98322C9.59468 6.98322 9.60014 6.99231 9.58923 7.01049L9.21105 7.67639L8.02334 9.76047C8.02111 9.76452 8.01781 9.76789 8.01381 9.77022C8.0098 9.77254 8.00524 9.77373 8.00061 9.77365C7.996 9.77363 7.99148 9.7724 7.98749 9.77009C7.9835 9.76778 7.98019 9.76446 7.97789 9.76047L6.40836 7.01867C6.39927 7.00322 6.40381 6.99504 6.42109 6.99413L6.51927 6.98867L9.57468 6.98322H9.57377Z" fill="white"/>
</svg>
